<svg id="Capa_1" data-name="Capa 1" xmlns="http://www.w3.org/2000/svg" viewBox="0 0 374.98 61.33"><defs><style>.cls-1{fill:#fed136;}</style></defs><path class="cls-1" d="M3.7,18.75Q3.6,18,3.43,17.13q0,.35.12-.54c.08-.59.18-1.61.31-3.05a3.89,3.89,0,0,0,.44-.75c.09-.22.17-.42.25-.6A7.17,7.17,0,0,1,4,11.48,1.1,1.1,0,0,1,3.86,11c.2-1.56.4-3.06.58-4.47a2.34,2.34,0,0,1,.67-1.31A11.47,11.47,0,0,1,6.87,3.63,14.46,14.46,0,0,1,8.6,2.39a13.57,13.57,0,0,1,1.62-.81A3.23,3.23,0,0,0,11.46,1a.55.55,0,0,1,.42-.23,1,1,0,0,1,.95.62,4.21,4.21,0,0,1,.32,1.85,7.41,7.41,0,0,1-.32,1.81,7,7,0,0,0-.33,1.7c0,.15,0,.75.06,1.77s.09,2.51.17,4.44a20.15,20.15,0,0,0,.6,4.44,49.84,49.84,0,0,0,1.44,4.9,16.49,16.49,0,0,0,2.59,4.95,4,4,0,0,0,3.05,1.64,6.37,6.37,0,0,0,3.48-1.7A38.89,38.89,0,0,0,29,22.1q2.23-2.62,4-4.9A36.33,36.33,0,0,0,35.81,13a15.42,15.42,0,0,1,2.36-3,19,19,0,0,1,3.08-2.47l.89-.5a1.2,1.2,0,0,1,.54-.19c.46,0,.81.34,1,1A10,10,0,0,1,44.09,11c-.15,1.26-.28,2.5-.38,3.74q-.36,2.89-1,6a67,67,0,0,1-1.75,6.48c-.36,1.14-.67,2.13-.92,3a16.91,16.91,0,0,0-.54,2.16c0,.33-.12.75-.21,1.25s-.19,1.09-.29,1.75c-.26.65-.54,1.29-.85,1.93a8.49,8.49,0,0,0-.64,1.85c-.16.72-.31,1.56-.44,2.51a6.83,6.83,0,0,1,0,.7c0,.28,0,.57-.07.88-.6,2.63-1.2,5.17-1.81,7.64a4.69,4.69,0,0,1-.35.89,3.68,3.68,0,0,0-1.14.65,9,9,0,0,0-1.33,1.39,9.21,9.21,0,0,1-1.15,1.14,1.34,1.34,0,0,1-.7.37.69.69,0,0,1-.5-.2.87.87,0,0,1-.19-.65,1.83,1.83,0,0,1,.12-.5,18.38,18.38,0,0,0,.94-3.78q.41-2.48.75-6.1c0-.51.23-1.9.62-4.16s1-5.4,1.7-9.42c.1-.64.24-1.43.4-2.37s.38-2,.64-3.22c.18-.62.33-1.15.44-1.6a4.37,4.37,0,0,0,.18-1,.9.9,0,0,0-.14-.56.46.46,0,0,0-.4-.18c-.16,0-.44.2-.85.6A17.65,17.65,0,0,0,32.61,24c-.36.44-.73.9-1.1,1.39s-.76,1-1.18,1.43l-1.93,2-2.85,2.86-.95.58-1.33.81a5.84,5.84,0,0,1-2.34,2,6.37,6.37,0,0,1-2.95.83,5.42,5.42,0,0,1-3.11-1A11.11,11.11,0,0,1,12,31.71l-1.22-2.08c-.4-.7-.83-1.39-1.29-2.09l-.19,0a15.44,15.44,0,0,0-.72,3.13c-.34,1.92-.79,4.75-1.33,8.48s-1,6.84-1.35,9a39.47,39.47,0,0,0-.46,4.24,4.73,4.73,0,0,1-.48,2,1.64,1.64,0,0,1-1.26.83,8.14,8.14,0,0,0-1.19.21c-.52.11-1.13.26-1.85.44a1,1,0,0,1-.35-.13.34.34,0,0,1-.16-.29l.24-1.43L0,52.65c.15-.79.31-1.56.46-2.31.11-1.54.2-3,.27-4.36A11.37,11.37,0,0,1,1,44.55a6.7,6.7,0,0,0,.25-1.5,4.38,4.38,0,0,0-.11-.79A3.87,3.87,0,0,1,1,41.47a43.13,43.13,0,0,1,.68-6.29,43,43,0,0,0,.67-6.33q-.12-.88-.27-1.77c.13-.93.34-2.08.62-3.47S3.34,20.6,3.7,18.75Z"/><path class="cls-1" d="M43.2,45.48l.23-.27.12-.39a25.91,25.91,0,0,1,3.66-3.72,23.85,23.85,0,0,0,3.63-3.72,2.44,2.44,0,0,1,.89-.89,2.09,2.09,0,0,1,1-.27A3.78,3.78,0,0,1,55,36.9a3.29,3.29,0,0,1,1.23,2c.18.8.35,1.6.5,2.41s.29,1.63.39,2.45c.18.52.4,1.29.65,2.34a7.05,7.05,0,0,0,.58,1.79,1.17,1.17,0,0,0,.58.56,2.48,2.48,0,0,0,1,.17,4.3,4.3,0,0,0,1.42-.25,5,5,0,0,0,1.51-.87l1.21-1,1.26-1L66.85,49a18.18,18.18,0,0,1-1.64,1.41c-.68.52-1.5,1.13-2.45,1.83A19.57,19.57,0,0,1,60.06,54a4.19,4.19,0,0,1-1.7.56c-2.34,0-3.85-.27-4.55-.81s-1.46-2-2.31-4.51a6.1,6.1,0,0,0-.47-.73c-.2-.28-.43-.62-.69-1a9.62,9.62,0,0,0-.81-1.33c-.23-.29-.43-.44-.58-.44a3.11,3.11,0,0,0-1.66.83A22.71,22.71,0,0,0,44.75,49c-.13-.34-.29-.74-.49-1.2s-.39-1-.59-1.62a2.71,2.71,0,0,0-.2-.42A.91.91,0,0,0,43.2,45.48ZM59.33,15a2.12,2.12,0,0,1,1.41.39,1.42,1.42,0,0,1,.44,1.12c-.16.72-.28,1.32-.39,1.81-.26.93-.48,1.69-.67,2.28s-.34,1-.45,1.27a4.78,4.78,0,0,1-.94,1.49,6.45,6.45,0,0,1-1.45,1.13,8.76,8.76,0,0,1-1.48.87,1.75,1.75,0,0,1-.83.21l-1.26-.13a11.61,11.61,0,0,0-1.17-.06,1.83,1.83,0,0,1-.79-1,5.94,5.94,0,0,1-.29-2.08,5.15,5.15,0,0,1,1.41-2.92,4.3,4.3,0,0,1,2.48-1.87c.44-.54,1-1.15,1.55-1.85a3.1,3.1,0,0,1,1-.44A5.13,5.13,0,0,1,59.33,15Z"/><path class="cls-1" d="M65.27,45.48a6.22,6.22,0,0,1,.4-.6l.6-.79c.26-.21.59-.5,1-.89s.88-.83,1.39-1.35l1.7-1.91,2.43-2.75,1.54-1.68c.62-.68,1.35-1.5,2.2-2.45a7.33,7.33,0,0,1,2.32-1.89,5.77,5.77,0,0,1,2.62-.62,2.4,2.4,0,0,1,2,.87A4.13,4.13,0,0,1,84.17,34a16.59,16.59,0,0,1-.66,3.39q-.66,2.5-2,6.63l-.66,1.47a4.76,4.76,0,0,0-.31.89,3.15,3.15,0,0,0-.07.58,1,1,0,0,0,.27.57,1.4,1.4,0,0,0,.36-.3l.41-.47a5.24,5.24,0,0,1,.94-1.21q.65-.64,1.53-1.41a6.55,6.55,0,0,1,.9-1.29,8.84,8.84,0,0,1,1.26-1.18,5,5,0,0,0,.4-.5,8.83,8.83,0,0,1,.6-.73,11,11,0,0,1,1.2-1,17.31,17.31,0,0,1,1.62-1.12,15.26,15.26,0,0,1,1.87-.85,4.11,4.11,0,0,1,1.44-.31,3.85,3.85,0,0,1,2.12.58,4.61,4.61,0,0,1,1.59,1.81c.51,1.6,1,3.07,1.46,4.44a5.41,5.41,0,0,0,.95,1.77,1.53,1.53,0,0,0,1.17.58,2.06,2.06,0,0,0,.91-.19,2.37,2.37,0,0,0,.75-.58L103.73,49l-1.35,1.12L101,51.27a5.86,5.86,0,0,1-1.65,1.13,3.93,3.93,0,0,1-1.55.33,4,4,0,0,1-1.69-.38,3.76,3.76,0,0,1-1.39-1.16A5.3,5.3,0,0,1,94,50.05c-.31-.55-.67-1.24-1.08-2.06a13.38,13.38,0,0,1-1.14-1.33l-1.49-1.95-.34-.12a6.22,6.22,0,0,0-1.45.7A11.64,11.64,0,0,0,87,46.48a14.4,14.4,0,0,1-2.51,1.93,2.29,2.29,0,0,0-1,.89,15.44,15.44,0,0,1-1.84,2.39c-.88,1-2,2.13-3.28,3.47-.33.34-.67.66-1,1l-1,.94a3.13,3.13,0,0,1-1.14.6,5.56,5.56,0,0,1-1.41.17c-1,0-1.58-.35-1.67-1.06s-.18-1.42-.25-2.14c.38-1.08.82-2.43,1.31-4s1-3.51,1.68-5.67a1.5,1.5,0,0,1,.14-.52c.09-.22.19-.51.32-.87a5.22,5.22,0,0,0,.27-.87,3.1,3.1,0,0,0,.07-.63.51.51,0,0,0-.19-.43,1,1,0,0,0-.62-.15,2,2,0,0,0-1,.46,10.44,10.44,0,0,0-1.52,1.47c-.72.77-1.3,1.37-1.74,1.81a4.85,4.85,0,0,1-.88.77,8.32,8.32,0,0,0-.91.77l-1.18,1.12-.23.46a3.2,3.2,0,0,1-.5.7,9,9,0,0,0-.54-1.43C66,47,65.68,46.33,65.27,45.48Z"/><path class="cls-1" d="M102.14,45.48l.24-.27.11-.39a26.1,26.1,0,0,1,3.67-3.72,24.16,24.16,0,0,0,3.62-3.72,2.44,2.44,0,0,1,.89-.89,2.09,2.09,0,0,1,1-.27,3.78,3.78,0,0,1,2.28.68,3.29,3.29,0,0,1,1.23,2c.18.8.35,1.6.5,2.41s.29,1.63.39,2.45c.18.52.4,1.29.66,2.34a6.8,6.8,0,0,0,.57,1.79,1.17,1.17,0,0,0,.58.56,2.48,2.48,0,0,0,1,.17,4.3,4.3,0,0,0,1.42-.25,5,5,0,0,0,1.51-.87l1.21-1,1.26-1L125.79,49a18.18,18.18,0,0,1-1.64,1.41c-.68.52-1.5,1.13-2.45,1.83A19,19,0,0,1,119,54a4.19,4.19,0,0,1-1.7.56c-2.34,0-3.85-.27-4.55-.81s-1.46-2-2.31-4.51a6.1,6.1,0,0,0-.47-.73c-.2-.28-.43-.62-.69-1a9.62,9.62,0,0,0-.81-1.33c-.23-.29-.42-.44-.58-.44a3.11,3.11,0,0,0-1.66.83A22.71,22.71,0,0,0,103.69,49c-.13-.34-.29-.74-.49-1.2s-.39-1-.59-1.62a2,2,0,0,0-.2-.42A.91.91,0,0,0,102.14,45.48ZM118.27,15a2.12,2.12,0,0,1,1.41.39,1.42,1.42,0,0,1,.44,1.12c-.15.72-.28,1.32-.39,1.81-.25.93-.48,1.69-.67,2.28s-.34,1-.45,1.27a4.78,4.78,0,0,1-.94,1.49,6.45,6.45,0,0,1-1.45,1.13,8.76,8.76,0,0,1-1.48.87,1.75,1.75,0,0,1-.83.21l-1.25-.13c-.4,0-.8-.06-1.18-.06a1.83,1.83,0,0,1-.79-1,6.18,6.18,0,0,1-.29-2.08,5.15,5.15,0,0,1,1.41-2.92,4.33,4.33,0,0,1,2.48-1.87c.44-.54,1-1.15,1.55-1.85a3.1,3.1,0,0,1,1-.44A5.13,5.13,0,0,1,118.27,15Z"/><path class="cls-1" d="M153.18,12.75a6.54,6.54,0,0,0-.72-1.45L151.06,9c-.6-.85-1-1.51-1.32-2a2.55,2.55,0,0,1-.42-1q0-1.08,2.49-3.56T155.45,0a4.39,4.39,0,0,1,1.24.69h1.16c.69.36,1.4.7,2.14,1s1.44.63,2.14,1A13.39,13.39,0,0,1,166,5a12.14,12.14,0,0,0,2.47,2,12.81,12.81,0,0,0,.93,1c.46.48,1.09,1.07,1.89,1.79a2.2,2.2,0,0,1,.38.43l.5.65q1.67,2,2.8,3.62a17,17,0,0,1,1.72,3.09,18.07,18.07,0,0,1,1.1,3.7,23.73,23.73,0,0,1,.36,4.28,19.69,19.69,0,0,1-1.15,7.2A8.43,8.43,0,0,1,173.43,37a5.33,5.33,0,0,1-.66.44c-.28.17-.56.36-.84.56l-.51.5a8,8,0,0,1-2.18,1.56,33.39,33.39,0,0,1-4,1.79q-3.28,1.28-6.9,2.78c-.67.33-1.24.6-1.72.81a3,3,0,0,1-1.1.31,3.4,3.4,0,0,0-1.35.15,9.52,9.52,0,0,0-.42,3.09c-.08,1.27-.16,2.5-.24,3.71a3.73,3.73,0,0,0,.41,1.53,8.85,8.85,0,0,0,1.25,1.88,14.53,14.53,0,0,1-.79,1.51,15.92,15.92,0,0,1-1.1,1.58,6,6,0,0,1-1.42,1.57,2.43,2.43,0,0,1-1.39.52A2,2,0,0,1,148.61,60a10.45,10.45,0,0,1-.6-4,11,11,0,0,1,.27-2.15q.27-1.29.81-3.18l-.19-2.24q-.51-.24-1-.51c-.32-.18-.63-.37-.94-.58a2.39,2.39,0,0,1-1-.69,1.32,1.32,0,0,1-.29-.77c0-.31.63-.77,1.87-1.37S149.44,43,149.44,42a6.18,6.18,0,0,0-.18-1.24,6.86,6.86,0,0,1-.17-1.19c.23-1.49.49-3,.77-4.52a8.91,8.91,0,0,0,.19-1.39c.08-.77.18-1.87.31-3.31.08-.44.19-1,.35-1.66s.32-1.44.5-2.32L150.94,25Zm3.16-4.59a.45.45,0,0,0-.33.11.58.58,0,0,0-.09.35q4.54,4.74,4.55,7a49,49,0,0,1-1.49,6,56.71,56.71,0,0,1-2,6.42l.31,1.62q-1.05,3.9-1.57,6.69a26.39,26.39,0,0,0-.52,4.45.9.9,0,0,0,.18.62.59.59,0,0,0,.48.19,4.9,4.9,0,0,0,1.39-.35,17.72,17.72,0,0,0,2.58-1.19c.67-.36,1.34-.69,2-1s1.35-.63,2-1c.29-.15.61-.35,1-.59s.77-.54,1.21-.87q.93-.69,1.47-1.14l.69-.56a7.49,7.49,0,0,0,2.51-2.89,9.38,9.38,0,0,0,.85-4.12,13.17,13.17,0,0,0-.33-2.9,18.06,18.06,0,0,0-1-3l-.08-.93a1.87,1.87,0,0,0-.27-.44l-.43-.56a4.59,4.59,0,0,1-.5-.62,4.64,4.64,0,0,1-.5-1,14.82,14.82,0,0,0-2.24-3,51.67,51.67,0,0,0-4.32-4.09l-.69-.63-.85-.79c-.49-.23-1.07-.5-1.73-.79S157.21,8.57,156.34,8.16Z"/><path class="cls-1" d="M180.14,43.78l3.51-2.31a5.36,5.36,0,0,0,.46-.52,6.83,6.83,0,0,0,.62-1,2.68,2.68,0,0,1,.72-.85,5,5,0,0,1,1-.61,12.26,12.26,0,0,1,.88-1q.59-.57,1.47-1.35c.28-.15.64-.38,1.08-.67a11.93,11.93,0,0,0,1.43-1.18,42.21,42.21,0,0,1,6.15-5,9,9,0,0,1,4.46-1.66,2.22,2.22,0,0,1,1.48.43,1.5,1.5,0,0,1,.48,1.19,3.2,3.2,0,0,1-.29,1.43,2.55,2.55,0,0,1-.9,1c-.65.47-1.34,1-2.09,1.55a18,18,0,0,1-1.5,1.71,17.28,17.28,0,0,1-2.08,1.8c-.26.33-.48.63-.66.88l-.73.7c-.36.33-.84.72-1.43,1.16a9.21,9.21,0,0,1-1.68,2.19q-1.29,1.35-3.45,3.24a12.74,12.74,0,0,0-1,1.24c-.47.64-1.07,1.49-1.82,2.54l.27.35a6.73,6.73,0,0,0,1.78-.92,17.65,17.65,0,0,0,2-1.74l2.14-2a12.71,12.71,0,0,1,1.18-1l.54-.31c.18-.1.39-.23.62-.39a16.45,16.45,0,0,1,3.31-3.14,5.28,5.28,0,0,1,2.86-1,1.38,1.38,0,0,1,1.23.63,3.87,3.87,0,0,1,.5,1.91c-.05,1.29-.07,2.52-.07,3.71a3.51,3.51,0,0,0,.67,2.22,2.22,2.22,0,0,0,1.87,1,1.3,1.3,0,0,0,.68-.19,4.1,4.1,0,0,0,.67-.51c.18-.23.36-.44.52-.65s.35-.41.53-.62a4.09,4.09,0,0,0,.44-.27,3.9,3.9,0,0,0,.56-.46c.36.77.66,1.45.91,2a15.61,15.61,0,0,1,.55,1.53c-.59.54-1.17,1.1-1.75,1.68s-1.19,1.12-1.83,1.64a10.12,10.12,0,0,1-2.24,1.33,5.75,5.75,0,0,1-2.16.44,5.07,5.07,0,0,1-3.86-1.43,7,7,0,0,1-1.58-4.32,2.53,2.53,0,0,0-.1-.71,2,2,0,0,0-.4-.75l-.42.4a7.44,7.44,0,0,0-.55.56l-1.25,1c-.5.39-1.09.85-1.75,1.39-.91.93-1.66,1.69-2.28,2.28s-1.05,1-1.31,1.27a15.27,15.27,0,0,1-1.8,1.31c-.68.44-1.44.89-2.29,1.35-.54.29-1,.51-1.39.68a2.37,2.37,0,0,1-.85.25,3.68,3.68,0,0,1-2.74-.91,3.84,3.84,0,0,1-.88-2.79,4.55,4.55,0,0,1,.44-2,6.64,6.64,0,0,1,1.33-1.83,6,6,0,0,0,.08-.81.91.91,0,0,0-.1-.41c-.06-.14-.15-.3-.25-.48-.15-.36-.33-.76-.52-1.21s-.4-.94-.64-1.45a3.74,3.74,0,0,0,.45-.6C179.66,44.59,179.89,44.22,180.14,43.78Z"/><path class="cls-1" d="M208.57,45.48a5,5,0,0,1,.41-.6l.59-.79c.26-.21.59-.5,1-.89s.87-.83,1.39-1.35l1.69-1.91,2.43-2.75,1.55-1.68c.61-.68,1.35-1.5,2.19-2.45a7.44,7.44,0,0,1,2.32-1.89,5.8,5.8,0,0,1,2.62-.62,2.4,2.4,0,0,1,2,.87,4.2,4.2,0,0,1,.65,2.53,17.07,17.07,0,0,1-.65,3.39q-.66,2.5-2,6.63l-.65,1.47a3.65,3.65,0,0,0-.31.89,3.37,3.37,0,0,0-.08.58,1,1,0,0,0,.27.57,1.44,1.44,0,0,0,.37-.3l.4-.47a5.31,5.31,0,0,1,.95-1.21c.42-.43.93-.9,1.52-1.41a6.21,6.21,0,0,1,.91-1.29,8.76,8.76,0,0,1,1.25-1.18,4.79,4.79,0,0,0,.41-.5,7,7,0,0,1,.59-.73,13.22,13.22,0,0,1,1.2-1,17.31,17.31,0,0,1,1.62-1.12,16,16,0,0,1,1.87-.85,4.16,4.16,0,0,1,1.45-.31,3.9,3.9,0,0,1,2.12.58,4.59,4.59,0,0,1,1.58,1.81c.51,1.6,1,3.07,1.47,4.44a5.24,5.24,0,0,0,.94,1.77,1.55,1.55,0,0,0,1.18.58,2,2,0,0,0,.9-.19,2.52,2.52,0,0,0,.76-.58L247,49l-1.35,1.12-1.35,1.12a5.89,5.89,0,0,1-1.66,1.13,3.88,3.88,0,0,1-1.54.33,4,4,0,0,1-1.7-.38A3.85,3.85,0,0,1,238,51.19a6.16,6.16,0,0,1-.77-1.14c-.31-.55-.67-1.24-1.08-2.06a14.85,14.85,0,0,1-1.14-1.33l-1.48-1.95-.35-.12a6.22,6.22,0,0,0-1.45.7,11.64,11.64,0,0,0-1.52,1.19,14.45,14.45,0,0,1-2.5,1.93,2.24,2.24,0,0,0-1,.89,16.32,16.32,0,0,1-1.85,2.39c-.87,1-2,2.13-3.28,3.47-.33.34-.66.66-1,1l-1,.94a3,3,0,0,1-1.14.6,5.54,5.54,0,0,1-1.4.17c-1,0-1.59-.35-1.68-1.06s-.17-1.42-.25-2.14c.38-1.08.82-2.43,1.31-4s1.05-3.51,1.69-5.67a1.44,1.44,0,0,1,.13-.52c.09-.22.2-.51.32-.87a5.22,5.22,0,0,0,.27-.87,3.19,3.19,0,0,0,.08-.63.54.54,0,0,0-.19-.43,1,1,0,0,0-.62-.15,1.9,1.9,0,0,0-1,.46,10,10,0,0,0-1.53,1.47c-.72.77-1.3,1.37-1.73,1.81a5.14,5.14,0,0,1-.89.77,8.32,8.32,0,0,0-.91.77c-.34.34-.74.71-1.17,1.12-.06.1-.13.26-.23.46a3.29,3.29,0,0,1-.51.7,9,9,0,0,0-.54-1.43C209.32,47,209,46.33,208.57,45.48Z"/><path class="cls-1" d="M245.45,45.48l.35-.31a1.88,1.88,0,0,1,.53-1A10.07,10.07,0,0,1,249,42a11.42,11.42,0,0,0,1.21-.85q2.43-2.08,4.71-4a20.61,20.61,0,0,1,2.62-2A18.51,18.51,0,0,1,260,33.83a11.72,11.72,0,0,1,6.64-3.2,1.2,1.2,0,0,1,.86.31,1.29,1.29,0,0,1,.41.77v2.12a3.24,3.24,0,0,1-.64,2,6,6,0,0,1-1.91,1.6c-.56.25-1.13.54-1.7.85s-1.13.59-1.69.84a13,13,0,0,1-1.64,1.45l-3.61,2.84c-.69.54-1.27,1-1.73,1.44a7.45,7.45,0,0,0-1,1,6.78,6.78,0,0,0-.6,1.62,9,9,0,0,0-.21,2.05,3.86,3.86,0,0,0,.27,1.52,2.37,2.37,0,0,0,.81,1,5.42,5.42,0,0,0,1.06.54,15.31,15.31,0,0,0,1.68.54,9.5,9.5,0,0,1,1.52-.45c.63-.14,1.33-.33,2.11-.56.87-.51,1.76-1,2.68-1.62s1.82-1.14,2.72-1.73a4.13,4.13,0,0,1,.48-.25,2.79,2.79,0,0,0,.6-.41A11.1,11.1,0,0,1,268.19,47c.45-.43,1-.94,1.64-1.5,1,2.24,1.54,3.42,1.54,3.55-.95.77-1.92,1.56-2.89,2.37a13,13,0,0,1-3.36,2,13.14,13.14,0,0,0-1,.92,12.77,12.77,0,0,1-4.49,2.92,16.42,16.42,0,0,1-5.85,1,6.43,6.43,0,0,1-1.31-.12,3.38,3.38,0,0,1-1-.31c-.78-.51-1.43-1-2-1.35a13.66,13.66,0,0,1-1.43-1.17,4.69,4.69,0,0,1-.85-1.06,3.57,3.57,0,0,1-.48-1.31A11.23,11.23,0,0,1,246.6,51a4.41,4.41,0,0,1,.2-1,4.15,4.15,0,0,0,.19-1,17.06,17.06,0,0,0-.66-1.74C246.08,46.7,245.78,46.1,245.45,45.48Z"/><path class="cls-1" d="M271,43.78l3.51-2.31A5.58,5.58,0,0,0,275.61,40a2.68,2.68,0,0,1,.72-.85,5,5,0,0,1,1-.61,10.91,10.91,0,0,1,.89-1c.38-.38.87-.83,1.46-1.35.28-.15.64-.38,1.08-.67a11.93,11.93,0,0,0,1.43-1.18,42.21,42.21,0,0,1,6.15-5,9,9,0,0,1,4.46-1.66,2.2,2.2,0,0,1,1.48.43,1.5,1.5,0,0,1,.48,1.19,3.35,3.35,0,0,1-.28,1.43,2.66,2.66,0,0,1-.91,1c-.64.47-1.34,1-2.08,1.55A19.74,19.74,0,0,1,290,35.08a16.54,16.54,0,0,1-2.08,1.8c-.26.33-.48.63-.66.88l-.73.7c-.36.33-.84.72-1.43,1.16a8.69,8.69,0,0,1-1.68,2.19q-1.29,1.35-3.45,3.24a12.74,12.74,0,0,0-1,1.24c-.47.64-1.07,1.49-1.82,2.54l.27.35a6.73,6.73,0,0,0,1.78-.92,17.65,17.65,0,0,0,2-1.74l2.14-2a12.71,12.71,0,0,1,1.18-1l.54-.31c.18-.1.39-.23.62-.39a16.21,16.21,0,0,1,3.32-3.14,5.25,5.25,0,0,1,2.85-1,1.38,1.38,0,0,1,1.23.63,4,4,0,0,1,.51,1.91c-.06,1.29-.08,2.52-.08,3.71a3.51,3.51,0,0,0,.67,2.22,2.22,2.22,0,0,0,1.87,1,1.3,1.3,0,0,0,.68-.19,4.1,4.1,0,0,0,.67-.51l.53-.65c.16-.21.34-.41.52-.62a4.09,4.09,0,0,0,.44-.27,3.9,3.9,0,0,0,.56-.46c.36.77.66,1.45.91,2A16,16,0,0,1,301,49c-.6.54-1.18,1.1-1.76,1.68s-1.19,1.12-1.83,1.64a10.12,10.12,0,0,1-2.24,1.33,5.75,5.75,0,0,1-2.16.44,5.07,5.07,0,0,1-3.86-1.43,7,7,0,0,1-1.58-4.32,2.94,2.94,0,0,0-.09-.71,2.15,2.15,0,0,0-.41-.75l-.42.4a7.44,7.44,0,0,0-.55.56l-1.25,1-1.75,1.39q-1.35,1.39-2.28,2.28c-.62.59-1.05,1-1.31,1.27a16,16,0,0,1-1.79,1.31c-.69.44-1.45.89-2.3,1.35-.54.29-1,.51-1.39.68a2.37,2.37,0,0,1-.85.25,3.68,3.68,0,0,1-2.74-.91,3.84,3.84,0,0,1-.88-2.79,4.7,4.7,0,0,1,.44-2,6.64,6.64,0,0,1,1.33-1.83,6,6,0,0,0,.08-.81.91.91,0,0,0-.1-.41c-.06-.14-.15-.3-.25-.48-.15-.36-.33-.76-.52-1.21s-.4-.94-.64-1.45a3.74,3.74,0,0,0,.45-.6C270.54,44.59,270.77,44.22,271,43.78Z"/><path class="cls-1" d="M299.45,45.48a1.42,1.42,0,0,0,.31-.33,3.92,3.92,0,0,0,.35-.67,4.41,4.41,0,0,1,.65-.83c.29-.3.62-.63,1-1a9.38,9.38,0,0,0,1.94-2.22,28.1,28.1,0,0,0,1.72-3.06q1.13-2.43,2.05-4.13a14.75,14.75,0,0,1,1.69-2.58q.24-.89.93-2.82t1.85-5q1.11-2.94,1.89-4.77A27,27,0,0,1,315,15.55c.1-.18.23-.42.4-.7a4,4,0,0,0,.41-1,24.44,24.44,0,0,1,1.27-3.38c.49-1,1-2,1.5-2.95a1.51,1.51,0,0,1,.49-.54,1,1,0,0,1,.59-.19A2.53,2.53,0,0,1,322,8a6.64,6.64,0,0,1,.75,3.51,22.59,22.59,0,0,1-1.66,7.15A90.48,90.48,0,0,1,316,29.7c-.46,1-1,2.18-1.5,3.59s-1.08,3-1.62,4.86c-.44,1.41-.86,2.85-1.28,4.32s-.83,2.91-1.27,4.32-.72,2.44-.92,3.22a7.79,7.79,0,0,0-.31,1.56.66.66,0,0,0,.09.39.36.36,0,0,0,.29.12,1,1,0,0,0,.68-.24,1.42,1.42,0,0,0,.44-.65,27.26,27.26,0,0,0,1.52-2.53c.51-.94,1-2,1.53-3.1l.11-1.12a6.5,6.5,0,0,1,1.16-3.55,6.36,6.36,0,0,1,3.32-1.58,8.15,8.15,0,0,0,1.56-2.09q1.26-2,3.34-5.82A28.57,28.57,0,0,1,325,28.33c.51-.68.9-1,1.15-1a1.43,1.43,0,0,1,1.28.58,3.21,3.21,0,0,1,.38,1.74c0,2-1.1,4.47-3.32,7.48s-3.31,5-3.31,5.94c0,.67.59,1.69,1.77,3.07s2.16,2.06,2.93,2.06a1.87,1.87,0,0,0,.87-.25,7.23,7.23,0,0,0,1.14-.79c.33-.26.66-.54,1-.83a8.83,8.83,0,0,1,1.06-.83L331.51,49c-.67.59-1.31,1.18-1.91,1.77s-1.24,1.17-1.91,1.74a8.42,8.42,0,0,1-2.24,1.6,5.23,5.23,0,0,1-2.24.52q-1.15,0-3.91-2.37a23.45,23.45,0,0,0-2.95-2.37,25.37,25.37,0,0,0-2.51,2.62l-1.37,1.64c-.45.53-.91,1.07-1.37,1.64a3.93,3.93,0,0,1-.62.65l-1,.89a14,14,0,0,1-1.22,1.49,2.23,2.23,0,0,1-1.67.71,2.93,2.93,0,0,1-2.32-.89,4,4,0,0,1-.77-2.7,25.2,25.2,0,0,1,.33-3.93,32.76,32.76,0,0,1,1-4.36c.18-.72.32-1.36.42-1.91a7.52,7.52,0,0,0,.16-1.45l-.27-.38c-.34.41-.76.9-1.27,1.46s-1.12,1.26-1.82,2.08a1.49,1.49,0,0,0-.32.41c-.12.19-.38.57-.8,1.14q-.18-.51-.48-1.2t-.6-1.62a2,2,0,0,0-.19-.42A.91.91,0,0,0,299.45,45.48Z"/><path class="cls-1" d="M329.89,45.48a9.26,9.26,0,0,1,1.19-1.64,15.06,15.06,0,0,1,1.85-1.72l.24-1.52c.07-.5.12-1,.15-1.52a11.68,11.68,0,0,1,.37-1.28c.16-.49.35-1,.56-1.58s.54-1.27.94-2.12a30.62,30.62,0,0,1,1.56-2.85c.54-.6,1.11-1.25,1.7-1.95l1.77-2.14a8.13,8.13,0,0,1,.93-.66c.33-.21.67-.44,1-.69a6.83,6.83,0,0,1,1-.27,6.33,6.33,0,0,1,1.28-.12,5.18,5.18,0,0,1,1.56.19,2,2,0,0,1,1,.66,3.19,3.19,0,0,1,.52.92A13.49,13.49,0,0,1,348,28.7c.07.51.16,1.08.27,1.7,0-.16-.05-.09-.14.19s-.22.73-.4,1.35l-.35,1.23A13.53,13.53,0,0,1,345,37.46,56.81,56.81,0,0,1,339.88,43a2.48,2.48,0,0,0-.47.68,1.93,1.93,0,0,0-.19.86,3.38,3.38,0,0,0,.29,1.43,2,2,0,0,0,.83.93,4.12,4.12,0,0,0,1,.46,13.05,13.05,0,0,0,1.6.42,11.72,11.72,0,0,0,2.74-.5,10.86,10.86,0,0,0,2.2-.92c.13-.08.34-.19.62-.33a5,5,0,0,0,.85-.56c.33.75.63,1.41.88,2s.47,1.11.62,1.55a23.3,23.3,0,0,1-4,3.26,6.48,6.48,0,0,1-3.3,1.1,4.67,4.67,0,0,1-1.41.56,9.18,9.18,0,0,1-1.87.17,7,7,0,0,1-2.52-.42,4.79,4.79,0,0,1-1.84-1.24,5,5,0,0,1-.77-1.14c-.26-.5-.53-1.1-.81-1.79a5.81,5.81,0,0,0-.65-1.25.89.89,0,0,0-.7-.41,1.21,1.21,0,0,0-.69.29,4.7,4.7,0,0,0-.85.87,9,9,0,0,0-.54-1.43C330.63,47,330.3,46.33,329.89,45.48Zm12.34-12.54q-.86,0-2.28,2.22a7.29,7.29,0,0,0-1.42,3.26.5.5,0,0,0,.09.33.65.65,0,0,0,.41.09.78.78,0,0,0,.69-.44c.18-.29.35-.57.5-.83a10.83,10.83,0,0,0,.83-.83c.27-.29.54-.58.79-.87a4.4,4.4,0,0,0,.7-1.08,2.8,2.8,0,0,0,.23-1.08,1.06,1.06,0,0,0-.13-.56A.47.47,0,0,0,342.23,32.94Z"/><path class="cls-1" d="M349.29,45.48l.23-.27a3.17,3.17,0,0,1,.68-1.16,6.42,6.42,0,0,1,1.48-1.23c.85-.54,1.51-1,2-1.31a4.25,4.25,0,0,0,.87-.74,4.33,4.33,0,0,0,.46-.65c.28-.21.63-.49,1-.85s.87-.8,1.39-1.31a3,3,0,0,0,.58-.62,10,10,0,0,0,.61-1c.34-.24.72-.53,1.14-.89s.92-.82,1.49-1.39,1.37-1.46,2.18-2.3,1.71-1.7,2.72-2.6a8.25,8.25,0,0,1,.94-.37,3,3,0,0,1,.87-.13,3.64,3.64,0,0,1,2.6.83,3.11,3.11,0,0,1,.87,2.37,9.34,9.34,0,0,1-.13,1.27c-.09.6-.19,1.34-.29,2.24-.36,2.6-.62,4.18-.78,4.75s-.69,2.34-1.61,5.32a18.15,18.15,0,0,0-.64,1.81c-.22.72-.48,1.6-.79,2.63a.83.83,0,0,0,.38.3,2.2,2.2,0,0,0,1-.52c.46-.34,1.08-.87,1.85-1.56s1.61-1.45,2.12-1.89a10.08,10.08,0,0,1,1-.77c.3.69.59,1.33.84,1.91s.48,1.12.66,1.64a5.73,5.73,0,0,0-.91.69,6.8,6.8,0,0,0-.75.85l-1.87,1.24-2.33,1.5c-.39.39-.91.86-1.57,1.41l-2.21,1.87-.74.15a6.07,6.07,0,0,1-1,1.12,3.34,3.34,0,0,1-.87.54c-.41.16-.82.3-1.23.45l-1.31.44a1,1,0,0,1-.62-.5,1.93,1.93,0,0,1-.15-1,9.76,9.76,0,0,1-.93-2.39,12.13,12.13,0,0,1-.35-3c0-.2,0-.42,0-.65s0-.44.08-.62a8.08,8.08,0,0,1-.27-1.19,2.36,2.36,0,0,1,.89-1.91,3,3,0,0,1,2-.76.86.86,0,0,1,.83.6c.17.4.34.6.52.6s.37-.35.56-1.06a25.65,25.65,0,0,0,.56-3.11c.18-1.18.3-2.21.35-3.08s.07-1.55.07-2a1.16,1.16,0,0,0-.21-.75.88.88,0,0,0-.71-.25q-.51,0-3.24,2.31T352,47.41a5.76,5.76,0,0,1-.44.65c-.2.26-.42.58-.68,1a9,9,0,0,0-.54-1.43C350,47,349.7,46.33,349.29,45.48Z"/></svg>